<?xml version="1.0" encoding="utf-8"?>
<!-- Generator: Adobe Illustrator 19.1.1, SVG Export Plug-In . SVG Version: 6.00 Build 0)  -->
<svg version="1.1" id="Layer_1" xmlns="http://www.w3.org/2000/svg" xmlns:xlink="http://www.w3.org/1999/xlink" x="0px" y="0px"
	 viewBox="-245 337 120 120" style="enable-background:new -245 337 120 120;" xml:space="preserve">
<style type="text/css">
	.st0{fill:#162740;}
	.st1{fill:#FFFFFF;}
	.st2{fill:#ED1C24;}
	.st3{fill:#3C91CF;}
</style>
<g id="Layer_2">
	<g>
		<circle class="st0" cx="-185" cy="397" r="60"/>
	</g>
	<g>
		<g>
			<path class="st1" d="M-194.7,430.2h-3.5V421h-10v9.2h-3.5V409h3.5v8.9h10V409h3.5V430.2z"/>
			<path class="st1" d="M-188.2,411.9c-0.6,0-1-0.2-1.4-0.5c-0.4-0.4-0.6-0.8-0.6-1.4s0.2-1,0.6-1.4c0.4-0.4,0.9-0.6,1.4-0.6
				c0.6,0,1.1,0.2,1.5,0.6c0.4,0.4,0.6,0.8,0.6,1.4c0,0.5-0.2,1-0.6,1.4C-187.1,411.7-187.6,411.9-188.2,411.9z M-186.5,430.2h-3.4
				v-15.1h3.4V430.2z"/>
			<path class="st1" d="M-168.5,430.2h-3.5v-8.5c0-2.8-1-4.2-3-4.2c-1,0-1.9,0.4-2.6,1.2c-0.7,0.8-1,1.8-1,3v8.6h-3.4v-15.2h3.4v2.5
				h0.1c1.1-1.9,2.8-2.9,4.9-2.9c1.6,0,2.9,0.5,3.8,1.6c0.9,1.1,1.3,2.6,1.3,4.6C-168.5,420.9-168.5,430.2-168.5,430.2z"/>
			<path class="st1" d="M-156.4,430c-0.7,0.3-1.5,0.5-2.6,0.5c-2.9,0-4.4-1.4-4.4-4.2v-8.5h-2.6v-2.7h2.5v-3.5l3.4-1v4.5h3.6v2.7
				h-3.5v7.6c0,0.9,0.2,1.5,0.5,1.9c0.3,0.4,0.9,0.6,1.6,0.6c0.6,0,1.1-0.2,1.5-0.5V430z"/>
		</g>
	</g>
	<path class="st2" d="M-155.9,437l-2.9-2.9c-0.6-0.6-1.5-0.6-2.1,0l-2,1.9l-1.9-1.9c-0.6-0.6-1.5-0.6-2.1,0l-2,1.9l-1.9-1.9
		c-0.6-0.6-1.5-0.6-2.1,0l-2,1.9l-1.9-1.9c-0.6-0.6-1.5-0.6-2.1,0l-2,1.9l-1.9-1.9c-0.6-0.6-1.5-0.6-2.1,0l-2,1.9l-1.9-1.9
		c-0.6-0.6-1.5-0.6-2.1,0l-2,1.9l-1.9-1.9c-0.6-0.6-1.5-0.6-2.1,0l-2,1.9l-1.9-1.9c-0.6-0.6-1.5-0.6-2.1,0l-2,1.9l-1.9-1.9
		c-0.6-0.6-1.5-0.6-2.1,0l-2.9,2.9c-0.6,0.6-0.6,1.5,0,2.1s1.5,0.6,2.1,0l1.9-1.9l1.9,1.9c0.3,0.3,0.7,0.4,1.1,0.4c0,0,0,0,0.1,0
		c0.4,0,0.8-0.1,1.1-0.4l1.9-1.9l1.9,1.9c0.3,0.3,0.7,0.4,1.1,0.4c0,0,0,0,0.1,0c0.4,0,0.8-0.1,1.1-0.4l1.9-1.9l1.9,1.9
		c0.3,0.3,0.7,0.4,1.1,0.4c0,0,0,0,0.1,0c0.4,0,0.8-0.1,1.1-0.4l1.9-1.9l1.9,1.9c0.3,0.3,0.7,0.4,1.1,0.4c0,0,0,0,0.1,0
		c0.4,0,0.8-0.1,1.1-0.4l1.9-1.9l1.9,1.9c0.3,0.3,0.7,0.4,1.1,0.4c0,0,0,0,0.1,0c0.4,0,0.8-0.1,1.1-0.4l1.9-1.9l1.9,1.9
		c0.3,0.3,0.7,0.4,1.1,0.4c0,0,0,0,0.1,0c0.4,0,0.8-0.1,1.1-0.4l1.9-1.9l1.9,1.9c0.3,0.3,0.7,0.4,1.1,0.4c0,0,0,0,0.1,0
		c0.4,0,0.8-0.1,1.1-0.4l1.9-1.9l1.9,1.9c0.3,0.3,0.7,0.4,1.1,0.4c0,0,0,0,0.1,0c0.4,0,0.8-0.1,1.1-0.4l1.9-1.9l1.9,1.9
		c0.3,0.3,0.7,0.4,1.1,0.4s0.8-0.1,1.1-0.4C-155.3,438.5-155.3,437.6-155.9,437z"/>
	<g>
		<path class="st1" d="M-208.4,402.4h-5.1v-9.2h-9.4v9.2h-5.1v-22.6h5.1v9h9.4v-9h5.1V402.4z"/>
		<path class="st1" d="M-187.3,384h-6.4v18.4h-5.1V384h-6.4v-4.1h18v4.1H-187.3z"/>
		<path class="st1" d="M-158.6,402.4h-5v-13.5c0-1.5,0.1-3.1,0.2-4.8h-0.1c-0.3,1.4-0.5,2.4-0.7,3l-5.3,15.4h-4.2l-5.4-15.2
			c-0.1-0.4-0.4-1.5-0.7-3.1h-0.1c0.1,2.2,0.2,4.2,0.2,5.9v12.5h-4.6v-22.8h7.4l4.6,13.4c0.4,1.1,0.6,2.1,0.8,3.2h0.1
			c0.3-1.2,0.6-2.3,0.9-3.3l4.6-13.4h7.3C-158.6,379.7-158.6,402.4-158.6,402.4z"/>
		<path class="st1" d="M-140,402.4h-13.4v-22.6h5.1v18.5h8.4v4.1H-140z"/>
	</g>
	<g>
		<path class="st3" d="M-198.4,368.5l-12-5.5v-2.1l12-5.7v3.1l-8.6,3.7l0,0l8.6,3.4V368.5z"/>
		<path class="st3" d="M-175.8,350.9l-9,21.5h-3.6l8.9-21.5C-179.5,350.9-175.8,350.9-175.8,350.9z"/>
		<path class="st3" d="M-160.8,362.8l-12,5.5v-3l8.6-3.4v-0.1l-8.6-3.7V355l12,5.7V362.8z"/>
	</g>
</g>
</svg>
